<svg xmlns="http://www.w3.org/2000/svg" viewBox="0 0 46 42">
  <g transform="translate(-130.69566,-591.14819)">
    <rect ry="1.8566352" y="592.18445" x="131.69664" height="39.927456" width="43.929771"
          style="fill:none;stroke:#000000;stroke-width:2.03694344;stroke-miterlimit:4;stroke-dasharray:none;stroke-opacity:1"/>
    <g transform="translate(-26.507754,-88.860304)">
      <path d="m 163.94765,686.42298 c -0.38058,0 -0.68819,0.2853 -0.68819,0.6388 l 0,7.0865 c 0,0.3535 0.30762,0.6392 0.68819,0.6392 l 32.44367,0 c 0.37849,0 0.68778,-0.2877 0.68778,-0.6392 l 0,-7.0865 c 0,-0.3535 -0.3072,-0.6388 -0.68778,-0.6388 l -32.44367,0 z m 3.93921,1.6958 a 2.4863311,2.4863311 0 0 1 2.48647,2.4865 2.4863311,2.4863311 0 0 1 -2.48647,2.4864 2.4863311,2.4863311 0 0 1 -2.48605,-2.4864 2.4863311,2.4863311 0 0 1 2.48605,-2.4865 z m 0,1.1881 a 1.29858,1.29858 0 0 0 -1.29836,1.2984 1.29858,1.29858 0 0 0 1.29836,1.2987 1.29858,1.29858 0 0 0 1.29878,-1.2987 1.29858,1.29858 0 0 0 -1.29878,-1.2984 z" style="fill:#000000;fill-opacity:1"/>
      <path d="m 163.94765,696.82628 c -0.38058,0 -0.68819,0.2853 -0.68819,0.6388 l 0,7.0865 c 0,0.3534 0.30762,0.6392 0.68819,0.6392 l 32.44367,0 c 0.37849,0 0.68778,-0.2877 0.68778,-0.6392 l 0,-7.0865 c 0,-0.3535 -0.3072,-0.6388 -0.68778,-0.6388 l -32.44367,0 z m 3.93921,1.6958 a 2.4863311,2.4863311 0 0 1 2.48647,2.4864 2.4863311,2.4863311 0 0 1 -2.48647,2.4865 2.4863311,2.4863311 0 0 1 -2.48605,-2.4865 2.4863311,2.4863311 0 0 1 2.48605,-2.4864 z m 0,1.1881 a 1.29858,1.29858 0 0 0 -1.29836,1.2983 1.29858,1.29858 0 0 0 1.29836,1.2988 1.29858,1.29858 0 0 0 1.29878,-1.2988 1.29858,1.29858 0 0 0 -1.29878,-1.2983 z" style="fill:#000000;fill-opacity:1"/>
      <path d="m 163.94765,707.22958 c -0.38058,0 -0.68819,0.2853 -0.68819,0.6388 l 0,7.0865 c 0,0.3534 0.30762,0.6391 0.68819,0.6391 l 32.44367,0 c 0.37849,0 0.68778,-0.2876 0.68778,-0.6391 l 0,-7.0865 c 0,-0.3535 -0.3072,-0.6388 -0.68778,-0.6388 l -32.44367,0 z m 3.93921,1.6957 a 2.4863311,2.4863311 0 0 1 2.48647,2.4865 2.4863311,2.4863311 0 0 1 -2.48647,2.4865 2.4863311,2.4863311 0 0 1 -2.48605,-2.4865 2.4863311,2.4863311 0 0 1 2.48605,-2.4865 z m 0,1.1881 a 1.29858,1.29858 0 0 0 -1.29836,1.2984 1.29858,1.29858 0 0 0 1.29836,1.2988 1.29858,1.29858 0 0 0 1.29878,-1.2988 1.29858,1.29858 0 0 0 -1.29878,-1.2984 z" style="fill:#000000;fill-opacity:1"/>
    </g>
  </g>
</svg>
